<?xml version="1.0" encoding="UTF-8"?>
<svg id="Layer_2" data-name="Layer 2" xmlns="http://www.w3.org/2000/svg" viewBox="0 0 112.01 68.38">
  <defs>
    <style>
      .cls-1 {
        fill: #fff;
      }
    </style>
  </defs>
  <g id="Layer_1-2" data-name="Layer 1">
    <g>
      <path class="cls-1" d="M56.06,0c11.96,0,23.92,0,35.88,0,1.97,0,3.79,.41,5.3,1.76,1.58,1.42,2.31,3.21,2.31,5.32,0,7.93,0,15.86,0,23.79,0,8.38,0,16.75,0,25.13q0,1.29-1.28,1.29c-1.7,0-3.4-.03-5.1,.01-.78,.02-1.06-.25-1.05-1.03,.04-2,.01-3.99,.01-5.99,0-14.16,0-28.32,0-42.48q0-1.32-1.33-1.32c-23.2,0-46.4,0-69.61,0q-1.31,0-1.32,1.33c-.01,16.28,.02,32.55-.01,48.83,0,.44-.24,.65-.67,.64-2.03,0-4.06,0-6.08,0-.73,.02-.65-.67-.64-1.21,0-16.31,0-32.61,0-48.92,0-3.2,1.65-5.62,4.54-6.72C18.03,.05,19.1,0,20.18,0c11.96,0,23.92,0,35.88,0Z"/>
      <path class="cls-1" d="M56.02,58.15c17.68,.06,35.37-.11,53.04,.06,1.9,.23,3.02,1.57,2.94,3.49-.17,3.81-3.1,6.67-6.91,6.67-32.74,0-65.48,0-98.22,0-3.79,0-6.74-2.91-6.87-6.7-.07-1.92,1.06-3.24,2.98-3.46,17.68-.16,35.36,0,53.04-.06Zm-.09,3.53c2.85-.01,7.88,.01,10.73-.01,1.2,.05,1.65-1.02,1.39-1.84h-24.19c-.2,.96,.44,1.84,1.59,1.85,2.77,.02,7.69,0,10.47,0Z"/>
      <path class="cls-1" d="M53.92,38.67c.04-.72-.17-1.39-.69-1.87-.52-.48-.39-.76,.06-1.21,5.15-5.13,10.28-10.31,15.4-15.46,.58-.48,.55-.83,.03-1.37-.53-.54-.85-.5-1.37,.02-5.07,5.13-10.17,10.24-15.24,15.37-.49,.49-.79,.71-1.43,.13-1.05-.96-2.55-.93-3.57,.08-3.84,3.79-7.65,7.61-11.44,11.45-1.12,1.13-1.09,2.69-.03,3.88,.74,.82,1.52,1.6,2.33,2.35,1.17,1.07,2.71,1.03,3.94-.17,2.33-2.27,4.61-4.59,6.9-6.88,1.31-1.31,2.61-2.62,3.91-3.92,.67-.67,1.25-1.38,1.18-2.4Zm-16.97,8.97c.09-.46,.42-.73,.71-1.02,3.6-3.55,7.08-7.24,10.74-10.71,.27-.16,.58-.18,.81,.08,.38,.44-.12,.9-.43,1.2-3.41,3.45-6.83,6.89-10.24,10.33-.46,.54-1.31,1.15-1.59,.12Zm2.49,2.48c.02-.41,.3-.61,.53-.83,3.66-3.62,7.22-7.36,10.93-10.92,.28-.19,.57-.18,.8,.09,.39,.44-.12,.89-.43,1.2-3.48,3.51-6.97,7.02-10.45,10.52-.39,.5-1.25,.79-1.38-.05Z"/>
      <path class="cls-1" d="M69.71,38.06c-.56-.02-1.22,.03-1.84,.28-.76,.31-1.3,.14-1.88-.47-2.03-2.1-4.13-4.13-6.17-6.22-.53-.54-.86-.53-1.35,.02-.75,.84-1.56,1.64-2.39,2.41-.5,.46-.44,.78,.02,1.24,2.15,2.15,4.26,4.33,6.42,6.48,.45,.44,.5,.83,.33,1.42-1.78,5.45,3.32,10.89,8.89,9.32,.96-.24,.99-.34,.31-1.03-1.3-1.31-2.62-2.61-3.91-3.93-.85-.86-.84-1.32,.01-2.19,.52-.53,1.05-1.06,1.58-1.58,.94-.93,1.41-.92,2.32,0,1.23,1.25,2.47,2.5,3.71,3.75,.73,.73,.92,.68,1.18-.31,1.23-4.61-2.33-9.19-7.22-9.19Z"/>
      <path class="cls-1" d="M43.41,11.59c-.55-.02-1.19,.05-1.83,.26-.92,.3-.96,.4-.29,1.07,1.24,1.25,2.49,2.48,3.73,3.73,1.04,1.04,1.05,1.41,.04,2.44-.54,.55-1.08,1.11-1.64,1.65-.75,.72-1.25,.73-1.99,0-1.35-1.35-2.7-2.69-4.02-4.07-.57-.59-.79-.41-.97,.27-.71,2.7-.12,5.11,1.79,7.11,2,2.09,4.49,2.74,7.28,1.97,.77-.21,1.25-.1,1.8,.47,1.62,1.7,3.32,3.33,4.96,5.02,.46,.48,.78,.49,1.23,0,.79-.85,1.61-1.68,2.46-2.47,.54-.5,.45-.85-.03-1.32-1.66-1.63-3.27-3.31-4.94-4.92-.56-.54-.72-1.02-.48-1.8,1.41-4.64-2.15-9.39-7.11-9.4Z"/>
      <path class="cls-1" d="M70.58,18.55l-.62,.18c-.21,.06-.43,0-.58-.15l-.47-.47c-.15-.15-.21-.38-.15-.58l.18-.62c.04-.13,.12-.24,.23-.32l2.17-1.53c.23-.16,.55-.14,.76,.06l.26,.26c.2,.2,.23,.52,.07,.76l-1.53,2.17c-.08,.11-.19,.19-.32,.23Z"/>
    </g>
  </g>
</svg>