<?xml version="1.0" encoding="UTF-8"?>
<svg id="Layer_2" data-name="Layer 2" xmlns="http://www.w3.org/2000/svg" viewBox="0 0 64.47 75.38">
  <defs>
    <style>
      .cls-1 {
        fill: #fff;
      }
    </style>
  </defs>
  <g id="Layer_1-2" data-name="Layer 1">
    <path class="cls-1" d="M11.71,10.05c.98,.02,1.91,.32,2.64,1.05,3.78,3.76,7.57,7.52,11.3,11.33,1.51,1.54,1.42,3.9-.12,5.49-1.63,1.69-3.32,3.34-4.98,5.01-1.1,1.1-1.18,1.76-.38,3.08,4.5,7.39,10.33,13.52,17.49,18.38,1.3,.88,1.92,.81,3.05-.32,1.35-1.35,2.69-2.71,4.04-4.05,1.93-1.9,4.24-1.9,6.16,.01,3.51,3.49,7,6.99,10.49,10.5,2,2.01,1.95,4.35-.07,6.36-2.42,2.41-4.68,4.67-7.01,7.02-1.33,1.34-2.81,1.82-4.7,1.22C25.71,67.79,6.82,48.14,.3,24c-.66-2.34-.28-4.19,1.56-5.89,2.35-2.16,4.54-4.48,6.78-6.74,.84-.84,1.83-1.31,3.07-1.32Z"/>
    <path class="cls-1" d="M51.62,.02c9.44,.19,17.37,11.31,9.89,19.73-3.65,4.07-9.37,5.56-14.63,4.38-.45-.1-.79,.05-1.14,.3-2.04,1.47-4.09,2.93-6.13,4.4-.39,.28-.79,.51-1.31,.46-1-.1-1.55-.96-1.32-2.1,.45-2.26,.87-4.53,1.37-6.78,.2-.89,.1-1.58-.4-2.4C32.54,8.69,40.97-.54,51.62,.02Zm-10.8,24.14c1.23-.85,2.37-1.56,3.51-2.49,.95-.81,1.9-.84,3.09-.57,8.67,2.34,18.51-6.17,11.75-14.33-4.3-4.67-12.3-4.95-16.95-.64-2.07,1.88-3.1,4.21-2.79,7.07,.18,1.61,.82,3.01,1.84,4.24,.44,.53,.62,1.08,.46,1.77-.19,.78-.35,1.57-.47,2.36-.13,.82-.42,1.62-.43,2.6Z"/>
    <path class="cls-1" d="M51.35,15.24c.19-.21,.26-.31,.35-.39,.6-.71,1.78-.09,1.59,.81-.23,1.16-1.27,1.92-2.14,2.62-.41,.31-.82,.68-1.39,.37-.58-.31-.73-.83-.72-1.46,.03-1.98-.01-3.96,0-5.93,.14-1.48-1.41-.24-1.57-1.14-.08-.46,.2-.85,.63-.94,.95-.21,1.92-.12,2.89-.05,.37,.03,.37,.39,.37,.68,0,1.85,0,3.56,0,5.42Z"/>
    <path class="cls-1" d="M49.86,8.15c-.69,0-1.2-.52-1.2-1.22,.05-1.66,2.47-1.64,2.45,.06-.02,.68-.55,1.17-1.25,1.16Z"/>
  </g>
</svg>