<?xml version="1.0" encoding="UTF-8"?>
<svg id="Layer_2" data-name="Layer 2" xmlns="http://www.w3.org/2000/svg" viewBox="0 0 82.17 81.57">
  <defs>
    <style>
      .cls-1 {
        fill: #fff;
      }
    </style>
  </defs>
  <g id="Layer_1-2" data-name="Layer 1">
    <g>
      <path class="cls-1" d="M41.37,29.79c-5.78-.02-10.59,4.77-10.6,10.52,0,5.69,4.85,10.53,10.61,10.58,5.59,.05,10.63-4.96,10.66-10.58,.03-5.65-4.89-10.5-10.67-10.52Zm.06,17.62c-3.95,.02-7.17-3.04-7.21-6.87-.05-4.1,3.09-7.36,7.1-7.38,4.06-.01,7.16,3.14,7.15,7.28,0,3.93-3.05,6.95-7.04,6.97Z"/>
      <path class="cls-1" d="M80.1,23.51c-.67-1.35-1.32-2.71-2.05-4.05-.98-1.79-2.27-1.91-3.96-1.35-2.1,.7-4.23,1.32-6.32,2.05-1.01,.35-1.76,.19-2.5-.6-1.16-1.23-2.34-2.44-3.62-3.54-.74-.63-.93-1.18-.63-2.1,.77-2.32,1.44-4.68,2.18-7.01,.4-1.27,.25-2.28-1.06-2.94-3.14-1.57-6.34-2.94-9.74-3.84-1.47-.39-2.47,.02-3.18,1.37-1.1,2.12-2.29,4.19-3.39,6.32-.46,.9-1.06,1.27-2.08,1.17-1.74-.18-3.5-.18-5.23,.09-1.39,.22-2.16-.36-2.78-1.53-1.03-1.95-2.21-3.83-3.25-5.79-.74-1.38-1.76-1.72-3.2-1.26-3.52,1.11-6.87,2.59-10.02,4.5-1.24,.75-1.59,1.75-1.11,3.12,.78,2.25,1.45,4.55,2.3,6.78,.4,1.05,.25,1.77-.6,2.44-1.43,1.12-2.67,2.45-3.73,3.91-.7,.97-1.47,1.13-2.56,.84-2.14-.58-4.31-1.01-6.45-1.6-1.62-.45-2.71,0-3.45,1.5-1.5,3.04-2.64,6.22-3.54,9.49-.39,1.42,.02,2.34,1.38,2.95,2.19,.96,4.34,1.99,6.51,3,.69,.32,1.36,.59,1.36,1.59,0,1.86,.06,3.72,.19,5.58,.07,1.01-.28,1.63-1.16,2.11-2.04,1.13-4.03,2.33-6.04,3.51-1.27,.75-1.97,1.68-1.51,3.3,.97,3.4,2.49,6.52,4.34,9.5,.69,1.12,1.58,1.41,2.82,.95,2.4-.89,4.84-1.69,7.24-2.58,.9-.33,1.52-.15,2.14,.58,1.28,1.52,2.72,2.89,4.4,3.97,.82,.53,.82,1.1,.58,1.92-.65,2.24-1.17,4.51-1.83,6.75-.38,1.28,.06,2.05,1.09,2.81,2.99,2.2,6.47,3.14,9.97,4.07,1.34,.35,2.24-.21,2.84-1.41,1.09-2.19,2.24-4.35,3.27-6.58,.44-.96,1.03-1.25,2.04-1.16,1.8,.16,3.63,.19,5.4-.22,1.16-.27,1.74,.16,2.26,1.06,1.14,1.96,2.38,3.88,3.46,5.87,.86,1.58,2,2,3.62,1.27,2.5-1.13,5.02-2.19,7.5-3.37,1.88-.9,2.15-1.71,1.51-3.67-.7-2.16-1.37-4.33-2.1-6.48-.28-.8-.3-1.44,.46-1.99,1.58-1.14,2.85-2.59,3.99-4.14,.67-.91,1.37-1.06,2.4-.75,2.28,.69,4.6,1.3,6.9,1.95,1.19,.33,2.22,.19,2.86-.98,1.84-3.33,3.44-6.75,3.8-10.62,.1-1.08-.2-1.78-1.18-2.26-2.09-1.03-4.15-2.14-6.24-3.15-.88-.42-1.39-.87-1.22-1.99,.3-1.96,.21-3.95-.05-5.92-.11-.87,.15-1.41,.94-1.83,2.27-1.19,4.49-2.48,6.77-3.65,1.27-.66,1.57-1.5,1.15-2.86-.54-1.73-1.09-3.44-1.88-5.07Zm-33.42,29.41c-6.86,2.93-15.4-.23-18.03-7.02-3.06-6.95,.13-15.09,7.1-18.13,6.81-2.96,14.96,.24,18.06,7.1,2.99,6.62-.33,15.14-7.14,18.05Z"/>
    </g>
  </g>
</svg>